<svg xmlns="http://www.w3.org/2000/svg" xmlns:xlink="http://www.w3.org/1999/xlink" version="1.1" x="0px" y="0px" width="100px" height="100px" viewBox="0 0 100 100" enable-background="new 0 0 100 100" xml:space="preserve">
<g id="Captions">
</g>
<g id="Your_Icon">
	<path d="M12.1,63.191c-5.638-1.821,7.766-2.922,10.081-2.777c0,0,2.291,0.234,3.055,0.293s2.136,0.44,0.374,1.204   s-4.339,1.469-5.886,2.666c-3.748,2.902-8.126,3.438-10.386,3.465c-1.895,0.022-3.216-0.275-4.919,0.078   c-1.703,0.353-1.856-0.012-3.266-0.481c0,0,1.938,1.292,3.348,1.058C5.91,68.46,5.91,68.449,5.91,68.449s-0.176,0.481-1.115,0.774   c-0.94,0.295-1.911,0.484-3.162,0.671c0,0,2.633,0.187,5.041-0.905c0.651-0.295,4.288-0.117,5.874-0.059s2.878-0.411,3.936-0.705   c1.058-0.293,3.407-1.374,4.816-2.255c1.41-0.881,3.113-1.621,5.228-2.268c2.115-0.646,3.534-1.805,5.767-1.451   c2.232,0.352,6.334,1.921,8.859,1.861c2.526-0.058,4.758-0.117,6.461,0.529s4.111,1.116,3.818,1.469   c-0.294,0.353-1.234,0.881-2.232,1.821c-0.999,0.939-2.819,1.586-4.464,1.82s-4.817,0.881-6.344,1.527   c-1.526,0.646-4.252,2.414-6.285,3.348c-4.924,2.261-6.275,0.146-8.331-0.089c0,0,3.515,3.319,10.034,0.441   c6.521-2.878,9.691-3.349,10.809-3.406c1.115-0.06,2.114-0.353,2.701-0.882c0.336-0.301-0.094,0.333-0.589,0.998   c-0.374,0.503-0.634,1.142-0.785,1.293c-0.134,0.134-0.613,0.437-1.128,0.894c-0.844,0.751-2.193,1.602-4.018,1.457   c0,0,2.825,0.563,4.641-0.765c0.785-0.574,1.554-1.247,2.3-1.938c0.534-0.494,1.241-0.658,1.75-1.146   c0.468-0.446,0.738-1.219,1.183-1.616c0.782-0.699,1.527-1.285,2.227-1.643c2.477-1.264,7.159-0.848,11.277,0.764   c1.352,0.529,6.295,3.835,9.114,5.362s3.631,3.803,4.935,4.699c1.879,1.292,3.876,1.351,4.698,2.466   c0.822,1.117,2.398,5.388,0.343,7.503c-2.056,2.114-5.814,3.817-6.813,4.757c-0.998,0.939-1.233,1.527-3.289,1.645   s-3.876,0.822-2.819,1.469c1.057,0.646,9.584,0.311,11.464,0.252c1.879-0.059,10.161,0.176,11.16,0.176   c0.998,0,2.28,0.512,1.693-0.545c-0.587-1.059-1.409-0.822-1.763-3.643c-0.352-2.819,0.059-9.633-2.878-13.392   c-2.938-3.76-6.226-8.341-0.705-7.519c1.209,0.18,2.035,0.746,3.605,0.84c0.71,0.042,2.32-0.31,3.054-0.294   c2.879-0.059,5.404-2.231,3.465-1.351c-4.616,2.098-9.275,0.431-10.183-0.628c0,0,1.701-2.494,1.255-3.66   c-0.46-1.205-0.998,0.411-0.998,0.411s-1.314-0.425-1.057-0.177c0.677,0.654,2.208,1.765-0.21,2.415   c-1.635,0.44-4.407-0.03-5.288,3.024c-0.336,1.162-3.065-1.169-5.414-1.756c-2.35-0.587-3.677-3.348-2.737-6.285   c0.939-2.936,4.923-5.896,6.919-5.192c1.998,0.705,1.774,2.525,1.305,3.584c-0.471,1.057,2.007-2.181,0.234-3.501   c0,0,1.175,0,1.997-0.705s2.606-0.834,2.489-1.656c0,0-1.968,1.203-3.73,1.408c-3.506,0.41-3.555-1.286-6.644,1.028   c0.407-1.818,0.32-3.491,0.103-4.945c-0.105-0.695,0.024-1.398-0.188-1.988c-0.166-0.46-0.526-0.827-0.747-1.214   c-1.153-2.031-2.977-3.005-4.698-2.401c0,0,4.302-0.438,4.999,4.999c0.509,3.973-0.867,5.459-2.08,7.213   c-0.321,0.465-0.872,0.896-1.34,1.453c-0.288,0.34-0.411,0.904-0.666,1.304c-0.288,0.451-0.616,0.828-0.773,1.38   c-0.236,0.828-0.271,1.785,0.058,2.917c0,0-2.289-2.496-5.344-3.112c-3.054-0.617-7.107-1.284-8.061-1.363   c-4.601-0.383-8.849-2.995-8.996-6.548c-0.147-3.555,1.551-5.963,3.254-6.902c1.703-0.94,2.938-1.321,3.289-1.38   c0.354-0.06-2.76-0.206-4.934,1.556c-2.173,1.762-2.526,4.224-2.555,4.987c0,0-1.226-3.827-3.837-5.176   c-3.075-1.587-5.063-1.367-5.708-1.016c0,0,7.354-1.257,8.764,8.2c0,0-0.294,0.317-1.233,0.173   c-0.783-0.121-1.431,0.145,0.127,0.572c1.118,0.308,1.953,0.402,2.47,2.673c0,0-2.011-0.218-3.773,0.193   c-2.758,0.644-14.567-0.881-16.682-2.631c-1.576-1.306-2.702-4.041-1.116-5.217c0,0-2.584-0.129-0.763,4.981   c0,0-1.067,0.465-3.711-0.123c-2.643-0.587-5.601,1.064-7.145,1.122c-2.271,0.084-5.756,0.117-6.461-2.115   c-0.705-2.231-1.527-4.522-3.876-5.462C3.442,50.93,0,51.443,0,51.443s7.048-0.587,8.224,3.995   c1.174,4.581,4.464,4.934,5.286,4.934S9.866,60.87,9.956,62.34C10.044,63.779,12.1,63.191,12.1,63.191z"/>
</g>
</svg>